name C:\Users\u0150099\Documents\master_thesis\3dpredictsim\Results\debug\Fal_s1_mtj_sc_cspx10_oy_MTPp_k1_d01_MTJp_k300_d01_PF_Natali2010_x10_ls146_ig21.mot
datacolumns 128
datarows 4
range 0.00000000 0.03059254
endheader
time	pelvis_tilt	pelvis_list	pelvis_rotation	pelvis_tx	pelvis_ty	pelvis_tz	hip_flexion_l	hip_adduction_l	hip_rotation_l	hip_flexion_r	hip_adduction_r	hip_rotation_r	knee_angle_l	knee_angle_r	ankle_angle_l	ankle_angle_r	subtalar_angle_l	subtalar_angle_r	mtj_angle_l	mtj_angle_r	mtp_angle_l	mtp_angle_r	lumbar_extension	lumbar_bending	lumbar_rotation	arm_flex_l	arm_add_l	arm_rot_l	arm_flex_r	arm_add_r	arm_rot_r	elbow_flex_l	elbow_flex_r	pro_sup_l	pro_sup_r	glut_med1_l/activation	glut_med2_l/activation	glut_med3_l/activation	glut_min1_l/activation	glut_min2_l/activation	glut_min3_l/activation	semimem_l/activation	semiten_l/activation	bifemlh_l/activation	bifemsh_l/activation	sar_l/activation	add_long_l/activation	add_brev_l/activation	add_mag1_l/activation	add_mag2_l/activation	add_mag3_l/activation	tfl_l/activation	pect_l/activation	grac_l/activation	glut_max1_l/activation	glut_max2_l/activation	glut_max3_l/activation	iliacus_l/activation	psoas_l/activation	quad_fem_l/activation	gem_l/activation	peri_l/activation	rect_fem_l/activation	vas_med_l/activation	vas_int_l/activation	vas_lat_l/activation	med_gas_l/activation	lat_gas_l/activation	soleus_l/activation	tib_post_l/activation	flex_dig_l/activation	flex_hal_l/activation	tib_ant_l/activation	per_brev_l/activation	per_long_l/activation	per_tert_l/activation	ext_dig_l/activation	ext_hal_l/activation	ercspn_l/activation	intobl_l/activation	extobl_l/activation	glut_med1_r/activation	glut_med2_r/activation	glut_med3_r/activation	glut_min1_r/activation	glut_min2_r/activation	glut_min3_r/activation	semimem_r/activation	semiten_r/activation	bifemlh_r/activation	bifemsh_r/activation	sar_r/activation	add_long_r/activation	add_brev_r/activation	add_mag1_r/activation	add_mag2_r/activation	add_mag3_r/activation	tfl_r/activation	pect_r/activation	grac_r/activation	glut_max1_r/activation	glut_max2_r/activation	glut_max3_r/activation	iliacus_r/activation	psoas_r/activation	quad_fem_r/activation	gem_r/activation	peri_r/activation	rect_fem_r/activation	vas_med_r/activation	vas_int_r/activation	vas_lat_r/activation	med_gas_r/activation	lat_gas_r/activation	soleus_r/activation	tib_post_r/activation	flex_dig_r/activation	flex_hal_r/activation	tib_ant_r/activation	per_brev_r/activation	per_long_r/activation	per_tert_r/activation	ext_dig_r/activation	ext_hal_r/activation	ercspn_r/activation	intobl_r/activation	extobl_r/activation	
          0.00000000	         -2.92579851	         -0.58138575	          5.90403921	          0.00000000	          0.91324013	         -0.00518544	        -21.48210735	          0.95678505	          5.81510023	         28.99749800	          0.71014882	         -6.51441378	         -5.20574619	        -21.23308287	         -4.55177114	         -1.49906277	         -0.88428150	          0.72988129	         -7.26964836	         -0.41354786	         33.74725733	          1.63231011	         -1.82662685	         -1.25555382	         -1.14774395	          5.50594351	        -13.65461525	         19.34113978	         -7.38697488	        -13.45035227	          9.42232844	         30.33753720	         21.92318636	         86.51662706	         86.51662706	          0.30535598	          0.08460096	          0.05000006	          0.44033664	          0.25983157	          0.11610657	          0.05000038	          0.05000004	          0.05000003	          0.07515338	          0.12823072	          0.05000005	          0.05000002	          0.05000004	          0.05000014	          0.05000011	          0.68720060	          0.05000015	          0.05000009	          0.05000058	          0.05000027	          0.05000017	          0.42541625	          0.74710208	          0.05000001	          0.05000008	          0.05000002	          0.25530727	          0.05000008	          0.05000007	          0.05000007	          0.37830343	          0.48520919	          0.31337737	          0.28392032	          0.59199327	          0.54474435	          0.05000000	          0.06507400	          0.05849800	          0.05000003	          0.05000000	          0.05000004	          0.05000000	          0.05000000	          0.05000000	          0.05000019	          0.05000021	          0.05000016	          0.05000070	          0.05000046	          0.05000038	          0.06844020	          0.06844078	          0.36662114	          0.06021340	          0.05000033	          0.13448526	          0.13459652	          0.12690990	          0.10832121	          0.08767032	          0.05000024	          0.08957346	          0.19026556	          0.05000051	          0.05669776	          0.08013029	          0.10960289	          0.10958045	          0.21788904	          0.05001407	          0.05000102	          0.05000005	          0.05000018	          0.05000021	          0.05000012	          0.06844014	          0.06844013	          0.06844013	          0.05000001	          0.05000007	          0.05000009	          0.41841248	          0.17223778	          0.09924165	          0.37469639	          0.40807632	          0.10398254	          0.05709444	          0.15002506	          0.15002493	
          0.01019751	         -2.91683480	         -0.78372353	          6.25126140	          0.01642107	          0.91180950	         -0.00496533	        -21.23442754	          0.44531004	          5.57967349	         28.69595972	          1.28291527	         -6.28342099	         -7.15848898	        -21.17724349	         -5.23923231	         -1.49157363	          0.29502928	         -0.17295892	         -8.11128092	         -0.18427962	         36.63637844	          0.77684826	         -1.65181193	         -0.94668517	         -1.22896429	          5.24172042	        -13.58719396	         19.34582412	         -8.26958652	        -13.45019934	          9.42393531	         31.53557370	         21.42871195	         86.51662706	         86.51662706	          0.26099727	          0.07231108	          0.05000000	          0.37636946	          0.22208615	          0.09923992	          0.05000038	          0.05000003	          0.05000002	          0.06423594	          0.10960281	          0.16937309	          0.05000008	          0.05000006	          0.05000017	          0.05000013	          0.67216079	          0.05010465	          0.05000007	          0.05000020	          0.05000013	          0.05000010	          0.36361652	          0.63857143	          0.05000000	          0.05000003	          0.05000001	          0.21821910	          0.08745800	          0.09205178	          0.05169599	          0.32334772	          0.41472341	          0.26785339	          0.24267555	          0.55087667	          0.46561024	          0.05000000	          0.05849763	          0.05000008	          0.05000002	          0.05000000	          0.05000002	          0.05000000	          0.05000001	          0.05386228	          0.05000007	          0.05000020	          0.05000019	          0.05000026	          0.05000026	          0.05000021	          0.05849799	          0.05849849	          0.32307986	          0.05146630	          0.05000011	          0.12810515	          0.16031992	          0.17954140	          0.15126000	          0.11257460	          0.05000031	          0.07657096	          0.16262598	          0.05000154	          0.08996125	          0.10418291	          0.09368102	          0.09366184	          0.25981558	          0.05000050	          0.05000011	          0.05002829	          0.08649521	          0.08612392	          0.07728617	          0.05849792	          0.05849792	          0.05849792	          0.05000000	          0.05000002	          0.05000001	          0.44491766	          0.14721700	          0.08482493	          0.42829021	          0.43848283	          0.28760296	          0.05000000	          0.12823109	          0.12823098	
          0.02039502	         -2.90256909	         -0.99997128	          6.57636255	          0.03318726	          0.91037232	         -0.00471496	        -20.87714919	         -0.09600538	          5.29335676	         28.37627167	          1.84809168	         -6.01910046	         -9.24795538	        -21.77387542	         -6.23629469	         -1.33959588	          1.53406810	         -1.15756500	         -9.00639629	          0.06538130	         39.80386523	         -0.12091281	         -1.45521259	         -0.61453707	         -1.30596453	          4.87945258	        -13.54278752	         19.33456427	         -9.18984189	        -13.45673827	          9.52413114	         32.79613763	         20.97283210	         86.51662706	         86.51662706	          0.22308250	          0.06180657	          0.05849797	          0.32169471	          0.18982396	          0.08482348	          0.05000039	          0.05000005	          0.05000014	          0.05490447	          0.09368095	          0.24431114	          0.12232657	          0.06823129	          0.05020090	          0.05849779	          0.63257620	          0.06335493	          0.05000036	          0.05000221	          0.05000137	          0.05001347	          0.31079437	          0.54580689	          0.06206779	          0.05849843	          0.05849815	          0.18651866	          0.12823071	          0.12823074	          0.12107029	          0.27637537	          0.35447701	          0.22894264	          0.20742236	          0.47085154	          0.39797161	          0.05000001	          0.05000000	          0.05000000	          0.05000000	          0.05000000	          0.05000004	          0.05266015	          0.07042461	          0.05000004	          0.05000050	          0.05000002	          0.05000013	          0.05000004	          0.05000008	          0.05000010	          0.05000007	          0.05000051	          0.27614642	          0.05671766	          0.06844011	          0.10949558	          0.13703077	          0.27588138	          0.12928697	          0.15426929	          0.05000010	          0.08007185	          0.13900159	          0.05000012	          0.12608858	          0.13541644	          0.08007209	          0.08005570	          0.43245213	          0.05851033	          0.05000006	          0.05440674	          0.15209381	          0.15161921	          0.13729211	          0.05000000	          0.05000000	          0.05000000	          0.14670881	          0.09643490	          0.06830981	          0.52967098	          0.12583096	          0.07250251	          0.36607299	          0.40311450	          0.37885269	          0.05000000	          0.10960311	          0.10960301	
          0.03059254	         -2.88342363	         -1.23823678	          6.88344615	          0.05020702	          0.90889606	         -0.00447331	        -20.39753839	         -0.66882535	          4.96029892	         27.98743530	          2.36408210	         -5.65973120	        -11.46822007	        -22.95598280	         -7.59529127	         -0.81123080	          2.77590221	         -2.22499281	         -9.95344539	          0.27538071	         43.22703485	         -0.86714643	         -1.24226040	         -0.25218753	         -1.37685171	          4.43344269	        -13.51920942	         19.31775042	        -10.13604362	        -13.47550137	          9.70363343	         34.12802768	         20.55129063	         86.51662706	         86.51662706	          0.19067557	          0.05282801	          0.05000005	          0.27496249	          0.16224846	          0.07250129	          0.05000061	          0.05000018	          0.05000010	          0.05000006	          0.08007204	          0.31709269	          0.28170336	          0.05831973	          0.05000050	          0.05000021	          0.63797039	          0.05853685	          0.05015277	          0.05000042	          0.05000025	          0.05000019	          0.26564563	          0.46651815	          0.05305129	          0.05000047	          0.05000020	          0.15942331	          0.10960280	          0.10960281	          0.10348256	          0.23622664	          0.30298254	          0.19568440	          0.17729035	          0.40245150	          0.34015875	          0.12703398	          0.05000004	          0.05000010	          0.05000001	          0.05000002	          0.05000013	          0.08476945	          0.06019411	          0.05000002	          0.30957316	          0.29851294	          0.05000001	          0.05003843	          0.05000016	          0.05000008	          0.06925922	          0.05000007	          0.23603095	          0.05000002	          0.05849796	          0.09358932	          0.19462442	          0.23580458	          0.26860139	          0.20779439	          0.05000005	          0.06844037	          0.11880926	          0.05000005	          0.24924609	          0.23593618	          0.06844012	          0.06842610	          0.36963033	          0.05001065	          0.12288322	          0.05000002	          0.16358879	          0.20324093	          0.16451370	          0.06417289	          0.05849807	          0.06471028	          0.12539659	          0.08242592	          0.05838653	          0.45272628	          0.13022464	          0.08007212	          0.31289404	          0.36349821	          0.32381721	          0.05000006	          0.09368119	          0.09368111	
